# xmcd CD database file
#
# Track frame offsets:
#	150
#	20389
#	44196
#	64008
#	81668
#	105340
#	129284
#	149001
#	176513
#	194215
#	230795
#	248422
#	266049
#	293516
#
# Disc length: 4247 seconds
#
# Revision: 1
# Processed by: cddbd v1.5.1PL0 Copyright (c) Steve Scherf et al.
# Submitted via: CDex 1.51
#
DISCID=d310950e
DTITLE=Indigo Girls - 1200 Curfews [CD1]
DYEAR=1995
DGENRE=Blues
TTITLE0=Joking
TTITLE1=Least Complicated
TTITLE2=Thin Line
TTITLE3=River
TTITLE4=Strange Fire
TTITLE5=Power of Two
TTITLE6=Pushing the Needle Too Far
TTITLE7=Virginia Woolf
TTITLE8=Jonas and Ezekiel
TTITLE9=Tangled Up in Blue
TTITLE10=World Falls
TTITLE11=Bury my Heart at Wounded Knee
TTITLE12=Ghost
TTITLE13=Dead Man's Hill
EXTD=YEAR: 1995
EXTT0=
EXTT1=
EXTT2=
EXTT3=
EXTT4=
EXTT5=
EXTT6=
EXTT7=
EXTT8=
EXTT9=
EXTT10=
EXTT11=
EXTT12=
EXTT13=
PLAYORDER=
